<svg width="16" height="18" viewBox="0 0 16 18" fill="none" xmlns="http://www.w3.org/2000/svg">
<path d="M12.5 4.5C12.5 3.60999 12.2361 2.73996 11.7416 1.99994C11.2471 1.25991 10.5443 0.683138 9.72208 0.342544C8.89981 0.00194979 7.99501 -0.0871652 7.12209 0.0864683C6.24918 0.260102 5.44736 0.688685 4.81802 1.31802C4.18868 1.94736 3.7601 2.74918 3.58647 3.6221C3.41283 4.49501 3.50195 5.39981 3.84254 6.22208C4.18314 7.04434 4.75991 7.74715 5.49993 8.24162C6.23995 8.73608 7.10998 9 8 9C9.19347 9 10.3381 8.5259 11.182 7.68198C12.0259 6.83807 12.5 5.69348 12.5 4.5ZM5 4.5C5 3.90666 5.17595 3.32664 5.50559 2.83329C5.83524 2.33994 6.30377 1.95543 6.85195 1.72836C7.40013 1.5013 8.00333 1.44189 8.58527 1.55765C9.16721 1.6734 9.70176 1.95912 10.1213 2.37868C10.5409 2.79824 10.8266 3.33279 10.9424 3.91473C11.0581 4.49667 10.9987 5.09987 10.7716 5.64805C10.5446 6.19623 10.1601 6.66477 9.66671 6.99441C9.17336 7.32406 8.59334 7.5 8 7.5C7.20435 7.5 6.44129 7.18393 5.87868 6.62132C5.31607 6.05871 5 5.29565 5 4.5ZM0.5 15.6975C0.5 16.2942 0.737053 16.8665 1.15901 17.2885C1.58097 17.7104 2.15326 17.9475 2.75 17.9475H13.25C13.8467 17.9475 14.419 17.7104 14.841 17.2885C15.2629 16.8665 15.5 16.2942 15.5 15.6975C15.5 14.3051 14.9469 12.9698 13.9623 11.9852C12.9777 11.0006 11.6424 10.4475 10.25 10.4475H5.75C4.35761 10.4475 3.02226 11.0006 2.03769 11.9852C1.05312 12.9698 0.5 14.3051 0.5 15.6975ZM5.75 11.9475H10.25C10.7425 11.9475 11.2301 12.0445 11.6851 12.233C12.14 12.4214 12.5534 12.6976 12.9017 13.0459C13.2499 13.3941 13.5261 13.8075 13.7145 14.2624C13.903 14.7174 14 15.205 14 15.6975C14 15.8964 13.921 16.0872 13.7803 16.2278C13.6397 16.3685 13.4489 16.4475 13.25 16.4475H2.75C2.55109 16.4475 2.36032 16.3685 2.21967 16.2278C2.07902 16.0872 2 15.8964 2 15.6975C2 14.7029 2.39509 13.7491 3.09835 13.0459C3.80161 12.3426 4.75544 11.9475 5.75 11.9475Z" fill="#21334F"/>
</svg>
