<svg width="22" height="22" viewBox="0 0 22 22" fill="none" xmlns="http://www.w3.org/2000/svg">
<path d="M11 7C10.2089 7 9.43552 7.2346 8.77772 7.67412C8.11992 8.11365 7.60723 8.73836 7.30448 9.46927C7.00173 10.2002 6.92252 11.0044 7.07686 11.7804C7.2312 12.5563 7.61216 13.269 8.17157 13.8284C8.73098 14.3878 9.44372 14.7688 10.2196 14.9231C10.9956 15.0775 11.7998 14.9983 12.5307 14.6955C13.2616 14.3928 13.8864 13.8801 14.3259 13.2223C14.7654 12.5645 15 11.7911 15 11C15 9.93913 14.5786 8.92172 13.8284 8.17157C13.0783 7.42143 12.0609 7 11 7ZM11 13C10.6044 13 10.2178 12.8827 9.88886 12.6629C9.55996 12.4432 9.30362 12.1308 9.15224 11.7654C9.00087 11.3999 8.96126 10.9978 9.03843 10.6098C9.1156 10.2219 9.30608 9.86549 9.58579 9.58579C9.86549 9.30608 10.2219 9.1156 10.6098 9.03843C10.9978 8.96126 11.3999 9.00087 11.7654 9.15224C12.1308 9.30362 12.4432 9.55996 12.6629 9.88886C12.8827 10.2178 13 10.6044 13 11C13 11.5304 12.7893 12.0391 12.4142 12.4142C12.0391 12.7893 11.5304 13 11 13ZM19.7 8C19.6371 8.00004 19.5756 7.98092 19.5238 7.9452C19.472 7.90947 19.4323 7.85883 19.41 7.8C19.35 7.64 19.29 7.48 19.22 7.32C19.1968 7.26747 19.1892 7.20939 19.1981 7.15267C19.207 7.09595 19.2319 7.04296 19.27 7C19.4859 6.78697 19.6573 6.53319 19.7743 6.25337C19.8913 5.97356 19.9515 5.67329 19.9515 5.37C19.9515 5.06671 19.8913 4.76644 19.7743 4.48663C19.6573 4.20681 19.4859 3.95303 19.27 3.74L18.27 2.74C17.8321 2.31836 17.2479 2.08281 16.64 2.08281C16.0321 2.08281 15.4479 2.31836 15.01 2.74C14.96 2.7744 14.9007 2.79282 14.84 2.79282C14.7793 2.79282 14.72 2.7744 14.67 2.74L14.19 2.55C14.1389 2.52902 14.0944 2.49479 14.061 2.45084C14.0276 2.40689 14.0065 2.35481 14 2.3C14 1.69 13.7577 1.10499 13.3263 0.673654C12.895 0.242321 12.31 0 11.7 0H10.3C9.69 0 9.10499 0.242321 8.67365 0.673654C8.24232 1.10499 8 1.69 8 2.3C8.00004 2.36292 7.98092 2.42437 7.9452 2.47617C7.90947 2.52797 7.85883 2.56767 7.8 2.59L7.32 2.78C7.26998 2.8144 7.2107 2.83282 7.15 2.83282C7.08929 2.83282 7.03002 2.8144 6.98 2.78C6.54212 2.35836 5.95788 2.12281 5.35 2.12281C4.74212 2.12281 4.15788 2.35836 3.72 2.78L2.72 3.78C2.29752 4.21 2.06162 4.78924 2.06349 5.39205C2.06536 5.99487 2.30485 6.57264 2.73 7C2.76663 7.051 2.78633 7.11221 2.78633 7.175C2.78633 7.23779 2.76663 7.299 2.73 7.35C2.66 7.51 2.6 7.67 2.54 7.82C2.5185 7.86786 2.4852 7.90948 2.44322 7.94097C2.40125 7.97245 2.35197 7.99276 2.3 8C1.69 8 1.10499 8.24232 0.673654 8.67365C0.242321 9.10499 0 9.69 0 10.3V11.7C0 12.31 0.242321 12.895 0.673654 13.3263C1.10499 13.7577 1.69 14 2.3 14C2.36292 14 2.42437 14.0191 2.47617 14.0548C2.52797 14.0905 2.56767 14.1412 2.59 14.2C2.65 14.36 2.71 14.52 2.78 14.68C2.81663 14.731 2.83633 14.7922 2.83633 14.855C2.83633 14.9178 2.81663 14.979 2.78 15.03C2.56412 15.243 2.39271 15.4968 2.27572 15.7766C2.15872 16.0564 2.09848 16.3567 2.09848 16.66C2.09848 16.9633 2.15872 17.2636 2.27572 17.5434C2.39271 17.8232 2.56412 18.077 2.78 18.29L3.78 19.29C4.21788 19.7116 4.80212 19.9472 5.41 19.9472C6.01788 19.9472 6.60212 19.7116 7.04 19.29C7.09002 19.2556 7.14929 19.2372 7.21 19.2372C7.27071 19.2372 7.32998 19.2556 7.38 19.29L7.86 19.48C7.91883 19.5023 7.96947 19.542 8.0052 19.5938C8.04092 19.6456 8.06004 19.7071 8.06 19.77C8.0777 20.3575 8.31968 20.916 8.73625 21.3307C9.15283 21.7455 9.71238 21.9849 10.3 22H11.7C12.31 22 12.895 21.7577 13.3263 21.3263C13.7577 20.895 14 20.31 14 19.7C14 19.6371 14.0191 19.5756 14.0548 19.5238C14.0905 19.472 14.1412 19.4323 14.2 19.41L14.68 19.22C14.73 19.1856 14.7893 19.1672 14.85 19.1672C14.9107 19.1672 14.97 19.1856 15.02 19.22C15.4579 19.6416 16.0421 19.8772 16.65 19.8772C17.2579 19.8772 17.8421 19.6416 18.28 19.22L19.28 18.22C19.4959 18.007 19.6673 17.7532 19.7843 17.4734C19.9013 17.1936 19.9615 16.8933 19.9615 16.59C19.9615 16.2867 19.9013 15.9864 19.7843 15.7066C19.6673 15.4268 19.4959 15.173 19.28 14.96C19.2357 14.9145 19.2069 14.856 19.198 14.7931C19.189 14.7302 19.2002 14.6661 19.23 14.61C19.3 14.45 19.36 14.29 19.42 14.14C19.4501 14.0939 19.4918 14.0567 19.541 14.0321C19.5902 14.0075 19.6451 13.9964 19.7 14C20.31 14 20.895 13.7577 21.3263 13.3263C21.7577 12.895 22 12.31 22 11.7V10.3C22 9.69 21.7577 9.10499 21.3263 8.67365C20.895 8.24232 20.31 8 19.7 8ZM20 11.7C19.9975 11.7788 19.9651 11.8536 19.9094 11.9094C19.8536 11.9651 19.7788 11.9975 19.7 12C19.231 11.9985 18.7727 12.1404 18.3867 12.4067C18.0006 12.6731 17.7052 13.051 17.54 13.49C17.5004 13.6173 17.4502 13.7411 17.39 13.86C17.1924 14.2876 17.1316 14.7658 17.2157 15.2293C17.2998 15.6928 17.5248 16.119 17.86 16.45C17.9165 16.5054 17.9489 16.5809 17.95 16.66C17.9484 16.742 17.9163 16.8204 17.86 16.88L16.86 17.88C16.8359 17.9131 16.8043 17.94 16.7678 17.9585C16.7313 17.977 16.6909 17.9867 16.65 17.9867C16.6091 17.9867 16.5687 17.977 16.5322 17.9585C16.4957 17.94 16.4641 17.9131 16.44 17.88C16.1087 17.5485 15.6837 17.3267 15.2223 17.2445C14.7609 17.1622 14.2854 17.2235 13.86 17.42C13.7411 17.4802 13.6173 17.5304 13.49 17.57C13.055 17.7322 12.6796 18.0227 12.4135 18.4031C12.1474 18.7835 12.0032 19.2358 12 19.7C11.9975 19.7788 11.9651 19.8536 11.9094 19.9094C11.8536 19.9651 11.7788 19.9975 11.7 20H10.3C10.2212 19.9975 10.1464 19.9651 10.0906 19.9094C10.0349 19.8536 10.0025 19.7788 10 19.7C10.0029 19.2307 9.86157 18.7718 9.59506 18.3854C9.32856 17.9991 8.94978 17.704 8.51 17.54C8.3827 17.5004 8.25893 17.4502 8.14 17.39C7.82621 17.2472 7.48473 17.1755 7.14 17.18C6.83912 17.1793 6.54107 17.2381 6.26303 17.3531C5.98499 17.4681 5.73246 17.637 5.52 17.85C5.36 18.01 5.24 17.97 5.1 17.85L4.1 16.85C4.07097 16.8212 4.04794 16.7869 4.03222 16.7492C4.0165 16.7114 4.0084 16.6709 4.0084 16.63C4.0084 16.5891 4.0165 16.5486 4.03222 16.5108C4.04794 16.4731 4.07097 16.4388 4.1 16.41C4.43437 16.0806 4.65894 15.6561 4.74306 15.1943C4.82717 14.7326 4.76674 14.2561 4.57 13.83C4.50977 13.7111 4.45959 13.5873 4.42 13.46C4.2525 13.033 3.96114 12.6658 3.58337 12.4057C3.2056 12.1455 2.75867 12.0042 2.3 12C2.22123 11.9975 2.14637 11.9651 2.09064 11.9094C2.03491 11.8536 2.0025 11.7788 2 11.7V10.3C2.0025 10.2212 2.03491 10.1464 2.09064 10.0906C2.14637 10.0349 2.22123 10.0025 2.3 10C2.76901 10.0015 3.22727 9.85958 3.61334 9.59326C3.9994 9.32694 4.29483 8.94897 4.46 8.51C4.49959 8.3827 4.54977 8.25893 4.61 8.14C4.80756 7.71237 4.86843 7.23421 4.78432 6.77072C4.70021 6.30723 4.47522 5.88095 4.14 5.55C4.08348 5.49461 4.05113 5.41913 4.05 5.34C4.05163 5.25803 4.08371 5.17961 4.14 5.12L5.14 4.12C5.16413 4.08694 5.19573 4.06004 5.23222 4.0415C5.26871 4.02296 5.30907 4.0133 5.35 4.0133C5.39093 4.0133 5.43129 4.02296 5.46778 4.0415C5.50427 4.06004 5.53587 4.08694 5.56 4.12C5.8913 4.45146 6.31633 4.67329 6.77769 4.75555C7.23906 4.83781 7.71456 4.77653 8.14 4.58C8.25893 4.51977 8.3827 4.46959 8.51 4.43C8.94498 4.26783 9.32041 3.9773 9.58651 3.5969C9.85261 3.21651 9.99681 2.76422 10 2.3C10.0025 2.22123 10.0349 2.14637 10.0906 2.09064C10.1464 2.03491 10.2212 2.0025 10.3 2H11.7C11.7788 2.0025 11.8536 2.03491 11.9094 2.09064C11.9651 2.14637 11.9975 2.22123 12 2.3C11.9971 2.76934 12.1384 3.22824 12.4049 3.61458C12.6714 4.00092 13.0502 4.29605 13.49 4.46C13.6173 4.49959 13.7411 4.54977 13.86 4.61C14.2854 4.80653 14.7609 4.86781 15.2223 4.78555C15.6837 4.70329 16.1087 4.48146 16.44 4.15C16.4641 4.11694 16.4957 4.09004 16.5322 4.0715C16.5687 4.05296 16.6091 4.0433 16.65 4.0433C16.6909 4.0433 16.7313 4.05296 16.7678 4.0715C16.8043 4.09004 16.8359 4.11694 16.86 4.15L17.86 5.15C17.889 5.17881 17.9121 5.21309 17.9278 5.25085C17.9435 5.2886 17.9516 5.3291 17.9516 5.37C17.9516 5.4109 17.9435 5.4514 17.9278 5.48915C17.9121 5.52691 17.889 5.56119 17.86 5.59C17.5256 5.91937 17.3011 6.34391 17.2169 6.80566C17.1328 7.26741 17.1933 7.74387 17.39 8.17C17.4502 8.28893 17.5004 8.4127 17.54 8.54C17.71 8.97336 18.0075 9.34493 18.3932 9.60561C18.7788 9.86629 19.2345 10.0038 19.7 10C19.7788 10.0025 19.8536 10.0349 19.9094 10.0906C19.9651 10.1464 19.9975 10.2212 20 10.3V11.7Z" fill="#21334F"/>
</svg>
